PathFileType	4	(X/Y/Z)	Run_200 02
DataRate	CameraRate	NumFrames	NumMarkers	Units	OrigDataRate	OrigDataStartFrame	OrigNumFrames
120	120	4	41	mm	120	572	125
Frame#	Time	LASI			RASI			LPSI			RPSI			RTH1			RTH3			LTH1			LTH2			LTH3			RTB1			RTB2			RTB3			LTB1			LTB2			LTB3			RCAL			RTOE			RMT5			LCAL			LTOE			LMT5			LACR			RACR			CLAV			C7			RUA1			RUA2			RUA3			RLEL			RMEL			LUA1			LUA2			LUA3			LLEL			LMEL			RFAsuperior			RFAradius			RFAulna			LFAsuperior			LFAradius			LFAulna		
		X1	Y1	Z1	X2	Y2	Z2	X3	Y3	Z3	X4	Y4	Z4	X5	Y5	Z5	X6	Y6	Z6	X7	Y7	Z7	X8	Y8	Z8	X9	Y9	Z9	X10	Y10	Z10	X11	Y11	Z11	X12	Y12	Z12	X13	Y13	Z13	X14	Y14	Z14	X15	Y15	Z15	X16	Y16	Z16	X17	Y17	Z17	X18	Y18	Z18	X19	Y19	Z19	X20	Y20	Z20	X21	Y21	Z21	X22	Y22	Z22	X23	Y23	Z23	X24	Y24	Z24	X25	Y25	Z25	X26	Y26	Z26	X27	Y27	Z27	X28	Y28	Z28	X29	Y29	Z29	X30	Y30	Z30	X31	Y31	Z31	X32	Y32	Z32	X33	Y33	Z33	X34	Y34	Z34	X35	Y35	Z35	X36	Y36	Z36	X37	Y37	Z37	X38	Y38	Z38	X39	Y39	Z39	X40	Y40	Z40	X41	Y41	Z41	

572	  4.766667	955.906584	1033.185432	-387.367827	954.561461	1028.609270	-156.831093	797.297704	1067.320321	-320.567675	789.573859	1062.997395	-223.079238	919.384275	860.563047	-95.911479	985.959639	611.375221	-154.862754	889.510657	838.757144	-442.909322	918.193053	724.266974	-416.517711	825.844637	624.790936	-407.875975	1062.061878	390.844003	-229.006280	1029.402695	330.299886	-162.450312	1049.589115	269.786795	-232.430195	747.483543	411.850380	-336.550227	654.017643	410.046380	-400.969392	602.627847	321.999491	-334.011574	955.122065	 96.379483	-234.472714	1160.005346	116.783753	-268.929514	1147.771696	 91.388390	-176.870494	445.445205	331.282629	-324.604226	515.796803	138.121329	-297.254838	477.042186	134.440083	-379.557627	958.775105	1493.196910	-451.312521	871.037500	1498.978509	-79.034189	973.766809	1481.079122	-228.412323	861.361299	1539.431990	-287.381020	763.188966	1405.136520	-39.254191	707.790804	1424.348455	-86.532896	691.668434	1354.005969	-24.831003	631.310343	1307.591965	-19.128092	618.908455	1293.930431	-100.880485	910.690346	1366.338625	-520.947052	842.001629	1326.079226	-532.585925	907.981397	1279.574146	-544.509984	863.232036	1206.403524	-568.378547	800.745663	1207.225832	-503.779830	698.884835	1198.915615	-13.071437	765.976466	1102.538595	-56.610976	709.834696	1071.397062	-28.797042	967.522499	1174.291025	-497.195931	1025.438121	1196.359964	-385.457192	1044.076019	1138.581891	-419.982190	
573	  4.775000	955.671054	1025.838014	-387.453162	953.920000	1021.978146	-156.188564	796.790205	1058.750798	-320.864767	788.736060	1055.238644	-223.184071	919.180959	853.778401	-96.375382	985.371776	604.508485	-155.586577	892.850452	830.658900	-443.005146	923.689535	716.843674	-417.875500	833.511811	615.758049	-409.352372	1059.517268	383.114277	-229.552690	1023.868893	323.029982	-163.972853	1043.739093	262.285537	-233.902827	755.275418	404.930615	-338.791153	660.805132	408.283692	-402.810294	606.517499	321.578563	-336.079344	944.023830	 97.244886	-236.105867	1149.604247	102.699753	-271.753688	1136.193989	 80.235256	-178.893751	447.938383	336.480081	-324.640553	516.186335	141.788310	-302.574825	476.661756	140.699108	-384.723544	957.415959	1485.672972	-451.087964	872.952694	1490.769967	-77.609758	974.180871	1473.272891	-228.332734	861.511701	1532.156380	-286.372517	766.235999	1395.165989	-37.074734	709.811352	1414.261550	-82.982889	695.561575	1342.977589	-22.167990	635.707910	1296.162903	-15.893172	622.546774	1282.745329	-97.549845	907.882335	1358.812198	-519.626156	838.648939	1319.307244	-530.523026	903.820540	1271.539348	-541.497637	857.983254	1199.365982	-566.093845	796.573975	1200.898596	-500.482551	704.740045	1188.419069	-10.918858	772.793083	1093.327918	-55.402714	717.351596	1061.032911	-27.312808	962.884437	1164.991904	-496.853488	1023.079019	1184.805557	-385.763769	1039.966050	1127.159056	-421.654504	
574	  4.783333	955.341934	1017.760483	-387.483938	952.869267	1014.811719	-155.806750	796.071048	1049.629968	-321.190650	787.661136	1047.002758	-223.275371	918.925661	846.471868	-96.388039	984.813662	597.717551	-156.746287	895.740015	822.049981	-443.201134	928.923849	708.841812	-419.567954	841.121940	606.160571	-410.960532	1057.843677	375.975890	-230.771702	1019.576573	316.316933	-166.264331	1038.049180	255.377392	-236.207851	763.557019	398.114867	-340.840347	668.530972	405.644983	-404.854172	611.334682	320.761325	-338.199135	932.029592	 98.586055	-237.968476	1138.141576	 90.067224	-274.292057	1123.452927	 71.298443	-180.374805	451.986507	341.175284	-324.699470	517.371415	144.906371	-307.856965	477.473995	146.687932	-390.061296	955.747531	1477.691823	-451.059467	874.970691	1481.879324	-76.113158	974.638107	1464.879973	-228.398132	861.519367	1524.243889	-285.497407	769.526389	1384.463709	-34.810445	711.999030	1403.379314	-79.243034	699.732045	1331.133348	-19.425280	640.466483	1283.883295	-12.443111	626.328153	1270.808794	-93.890062	904.733896	1350.681313	-518.353424	835.014885	1311.984138	-528.390754	899.410995	1262.947739	-538.339281	852.431527	1191.854440	-563.675607	792.049798	1194.146612	-497.212762	711.016858	1177.143044	 -8.710247	780.004319	1083.473182	-54.295565	725.354730	1050.010010	-25.813470	957.978025	1155.132058	-496.720966	1020.363373	1172.434412	-386.365425	1035.464923	1114.967752	-423.544182	
575	  4.791667	954.843873	1009.131470	-387.299080	951.186992	1007.311691	-155.714206	794.945339	1040.056133	-321.476609	785.957476	1038.495031	-223.345946	918.429942	839.190324	-95.705684	985.218561	591.781341	-157.991743	898.243213	812.876312	-443.332346	933.861393	700.350193	-421.480062	848.675503	596.123383	-412.555434	1056.797994	370.203662	-233.006472	1017.302402	311.052032	-168.957626	1032.289217	249.967637	-239.091573	772.387086	391.598768	-342.585843	677.091694	402.141833	-407.065971	617.078488	319.627714	-340.339818	919.025094	100.026048	-239.704813	1125.234949	 80.927568	-276.190223	1109.671633	 65.780925	-181.226644	457.584917	345.279277	-324.877608	519.395210	147.455277	-313.118417	479.552811	152.267598	-395.401211	953.775432	1469.397766	-451.421731	877.105706	1472.388915	-74.434623	975.174066	1456.152353	-228.606513	861.435007	1515.928221	-284.707131	773.073847	1373.105880	-32.488791	714.338213	1391.731180	-75.358447	704.166428	1318.545902	-16.566923	645.593853	1270.826985	 -8.811453	630.283697	1258.071877	-89.955744	901.214474	1341.976070	-517.222874	831.076535	1304.122873	-526.232624	894.665266	1253.796673	-535.046018	846.582226	1183.958089	-561.191536	787.265565	1187.030168	-494.055540	717.735522	1165.151606	 -6.464545	787.602432	1072.979906	-53.385451	733.860067	1038.421092	-24.351521	952.788039	1144.736240	-496.835621	1017.335194	1159.327756	-387.392216	1030.530336	1101.993920	-425.499514	
